# File produced by Open Asset Import Library (http://www.assimp.sf.net)
# (assimp v3.1.76522261)

mtllib body.obj.mtl

# 136 vertex positions
v  -0.25 0.3 -0.05
v  -0.35 0.3 -0.05
v  -0.25 0.319134 -0.046194
v  -0.35 0.319134 -0.046194
v  -0.35 0.335355 -0.0353553
v  -0.25 0.335355 -0.0353553
v  -0.35 0.346194 -0.0191342
v  -0.25 0.346194 -0.0191342
v  -0.35 0.35 3.06162e-018
v  -0.25 0.35 3.06162e-018
v  -0.35 0.346194 0.0191342
v  -0.25 0.346194 0.0191342
v  -0.35 0.335355 0.0353553
v  -0.25 0.335355 0.0353553
v  -0.35 0.319134 0.046194
v  -0.25 0.319134 0.046194
v  -0.35 0.3 0.05
v  -0.25 0.3 0.05
v  -0.35 0.15 -0.05
v  -0.35 0.15 0.05
v  -0.25 0.15 -0.05
v  -0.25 0.15 0.05
v  -0.35 -0.3 0.05
v  -0.35 -0.319134 0.046194
v  -0.25 -0.3 0.05
v  -0.25 -0.319134 0.046194
v  -0.35 -0.335355 0.0353553
v  -0.25 -0.335355 0.0353553
v  -0.35 -0.346194 0.0191342
v  -0.25 -0.346194 0.0191342
v  -0.35 -0.35 3.06162e-018
v  -0.25 -0.35 3.06162e-018
v  -0.35 -0.346194 -0.0191342
v  -0.25 -0.346194 -0.0191342
v  -0.35 -0.335355 -0.0353553
v  -0.25 -0.335355 -0.0353553
v  -0.35 -0.319134 -0.046194
v  -0.25 -0.319134 -0.046194
v  -0.25 -0.3 -0.05
v  -0.35 -0.3 -0.05
v  -0.35 -0.15 0.05
v  -0.35 -0.15 -0.05
v  -0.25 -0.15 -0.05
v  -0.25 -0.15 0.05
v  0.35 0.3 0.05
v  0.35 0.319134 0.046194
v  0.25 0.3 0.05
v  0.25 0.319134 0.046194
v  0.35 0.335355 0.0353553
v  0.25 0.335355 0.0353553
v  0.35 0.346194 0.0191342
v  0.25 0.346194 0.0191342
v  0.35 0.35 3.06162e-018
v  0.25 0.35 3.06162e-018
v  0.35 0.346194 -0.0191342
v  0.25 0.346194 -0.0191342
v  0.35 0.335355 -0.0353553
v  0.25 0.335355 -0.0353553
v  0.35 0.319134 -0.046194
v  0.25 0.319134 -0.046194
v  0.25 0.3 -0.05
v  0.35 0.3 -0.05
v  0.35 0.15 0.05
v  0.35 0.15 -0.05
v  0.25 0.15 -0.05
v  0.25 0.15 0.05
v  0.25 -0.3 -0.05
v  0.35 -0.3 -0.05
v  0.25 -0.319134 -0.046194
v  0.35 -0.319134 -0.046194
v  0.35 -0.335355 -0.0353553
v  0.25 -0.335355 -0.0353553
v  0.35 -0.346194 -0.0191342
v  0.25 -0.346194 -0.0191342
v  0.35 -0.35 3.06162e-018
v  0.25 -0.35 3.06162e-018
v  0.35 -0.346194 0.0191342
v  0.25 -0.346194 0.0191342
v  0.35 -0.335355 0.0353553
v  0.25 -0.335355 0.0353553
v  0.35 -0.319134 0.046194
v  0.25 -0.319134 0.046194
v  0.35 -0.3 0.05
v  0.25 -0.3 0.05
v  0.35 -0.15 -0.05
v  0.35 -0.15 0.05
v  0.25 -0.15 -0.05
v  0.25 -0.15 0.05
v  -0.598982 -0.15 -0.0142315
v  -0.5 -0.15 0.1
v  -0.554064 -0.15 0.0841254
v  -0.575575 -0.15 0.0654861
v  -0.590963 -0.15 0.0415415
v  -0.598982 -0.15 0.0142315
v  -0.590963 -0.15 -0.0415415
v  -0.575575 -0.15 -0.0654861
v  -0.554064 -0.15 -0.0841254
v  -0.5 -0.15 -0.1
v  -0.528173 -0.15 -0.0959493
v  0.5 -0.15 -0.1
v  0.554064 -0.15 -0.0841254
v  0.528173 -0.15 -0.0959493
v  0.5 -0.15 0.1
v  -0.528173 -0.15 0.0959493
v  0.554064 -0.15 0.0841254
v  0.575575 -0.15 0.0654861
v  0.590963 -0.15 0.0415415
v  0.598982 -0.15 0.0142315
v  0.598982 -0.15 -0.0142315
v  0.528173 -0.15 0.0959493
v  0.590963 -0.15 -0.0415415
v  0.575575 -0.15 -0.0654861
v  0.5 0.15 0.1
v  -0.5 0.15 0.1
v  -0.528173 0.15 0.0959493
v  -0.554064 0.15 0.0841254
v  -0.575575 0.15 0.0654861
v  -0.590963 0.15 0.0415415
v  -0.598982 0.15 0.0142315
v  -0.598982 0.15 -0.0142315
v  -0.590963 0.15 -0.0415415
v  -0.575575 0.15 -0.0654861
v  -0.554064 0.15 -0.0841254
v  -0.528173 0.15 -0.0959493
v  -0.5 0.15 -0.1
v  0.5 0.15 -0.1
v  0.528173 0.15 -0.0959493
v  0.554064 0.15 -0.0841254
v  0.575575 0.15 -0.0654861
v  0.590963 0.15 -0.0415415
v  0.598982 0.15 -0.0142315
v  0.598982 0.15 0.0142315
v  0.590963 0.15 0.0415415
v  0.575575 0.15 0.0654861
v  0.554064 0.15 0.0841254
v  0.528173 0.15 0.0959493

# 0 UV coordinates

# 48 vertex normals
vn 0 0.19509 -0.980785
vn 0 0.55557 -0.83147
vn 0 0.83147 -0.55557
vn 0 0.980785 -0.19509
vn 0 0.980785 0.19509
vn 0 0.83147 0.55557
vn 0 0.55557 0.83147
vn 0 0.19509 0.980785
vn -1 0 0
vn 0 0 -1
vn 1 0 0
vn 0 0 1
vn 0 -0.19509 0.980785
vn 0 -0.55557 0.83147
vn 0 -0.83147 0.55557
vn 0 -0.980785 0.19509
vn -0 -0.980785 -0.19509
vn -0 -0.83147 -0.55557
vn -0 -0.55557 -0.83147
vn -0 -0.19509 -0.980785
vn 0 -1 0
vn -0.142315 0 0.989821
vn -0.415415 0 0.909632
vn -0.654861 0 0.75575
vn -0.841254 0 0.540641
vn -0.959493 0 0.281733
vn -1 0 -3.90059e-015
vn -0.959493 0 -0.281733
vn -0.841254 0 -0.540641
vn -0.654861 0 -0.75575
vn -0.415415 0 -0.909632
vn -0.415415 3.80917e-017 -0.909632
vn -0.142315 4.57884e-017 -0.989821
vn -0.142315 0 -0.989821
vn 0.142315 0 -0.989821
vn 0.415415 0 -0.909632
vn 0.654861 0 -0.75575
vn 0.841254 0 -0.540641
vn 0.959493 0 -0.281733
vn 1 0 3.90059e-015
vn 0.959493 0 0.281733
vn 0.841254 0 0.540641
vn 0.654861 0 0.75575
vn 0.415415 0 0.909632
vn 0.415415 3.80917e-017 0.909632
vn 0.142315 4.57884e-017 0.989821
vn 0.142315 0 0.989821
vn 0 1 0

# Mesh '<STL_BINARY>' with 268 faces
g <STL_BINARY>
usemtl DefaultMaterial
f  1//1 2//1 3//1
f  3//1 2//1 4//1
f  3//2 4//2 5//2
f  3//2 5//2 6//2
f  6//3 5//3 7//3
f  6//3 7//3 8//3
f  8//4 7//4 9//4
f  8//4 9//4 10//4
f  10//5 9//5 11//5
f  10//5 11//5 12//5
f  12//6 11//6 13//6
f  12//6 13//6 14//6
f  14//7 13//7 15//7
f  14//7 15//7 16//7
f  16//8 15//8 17//8
f  16//8 17//8 18//8
f  19//9 20//9 2//9
f  2//9 20//9 9//9
f  9//9 20//9 11//9
f  11//9 20//9 17//9
f  2//9 9//9 7//9
f  7//9 5//9 2//9
f  2//9 5//9 4//9
f  11//9 17//9 13//9
f  13//9 17//9 15//9
f  21//10 19//10 1//10
f  1//10 19//10 2//10
f  22//11 21//11 18//11
f  18//11 21//11 10//11
f  10//11 21//11 8//11
f  8//11 21//11 1//11
f  18//11 10//11 12//11
f  12//11 14//11 18//11
f  18//11 14//11 16//11
f  8//11 1//11 6//11
f  6//11 1//11 3//11
f  20//12 22//12 17//12
f  17//12 22//12 18//12
f  23//13 24//13 25//13
f  25//13 24//13 26//13
f  26//14 24//14 27//14
f  26//14 27//14 28//14
f  28//15 27//15 29//15
f  28//15 29//15 30//15
f  30//16 29//16 31//16
f  30//16 31//16 32//16
f  32//17 31//17 33//17
f  32//17 33//17 34//17
f  34//18 33//18 35//18
f  34//18 35//18 36//18
f  36//19 35//19 37//19
f  36//19 37//19 38//19
f  38//20 37//20 39//20
f  39//20 37//20 40//20
f  41//9 42//9 23//9
f  23//9 42//9 31//9
f  31//9 42//9 33//9
f  33//9 42//9 40//9
f  23//9 31//9 29//9
f  29//9 27//9 23//9
f  23//9 27//9 24//9
f  33//9 40//9 35//9
f  35//9 40//9 37//9
f  42//10 43//10 40//10
f  40//10 43//10 39//10
f  43//11 44//11 39//11
f  39//11 44//11 32//11
f  32//11 44//11 30//11
f  30//11 44//11 25//11
f  39//11 32//11 34//11
f  34//11 36//11 39//11
f  39//11 36//11 38//11
f  30//11 25//11 28//11
f  28//11 25//11 26//11
f  44//12 41//12 25//12
f  25//12 41//12 23//12
f  45//8 46//8 47//8
f  47//8 46//8 48//8
f  48//7 46//7 49//7
f  48//7 49//7 50//7
f  50//6 49//6 51//6
f  50//6 51//6 52//6
f  52//5 51//5 53//5
f  52//5 53//5 54//5
f  54//4 53//4 55//4
f  54//4 55//4 56//4
f  56//3 55//3 57//3
f  56//3 57//3 58//3
f  58//2 57//2 59//2
f  58//2 59//2 60//2
f  60//1 59//1 61//1
f  61//1 59//1 62//1
f  63//11 64//11 45//11
f  45//11 64//11 53//11
f  53//11 64//11 55//11
f  55//11 64//11 62//11
f  45//11 53//11 51//11
f  51//11 49//11 45//11
f  45//11 49//11 46//11
f  55//11 62//11 57//11
f  57//11 62//11 59//11
f  64//10 65//10 62//10
f  62//10 65//10 61//10
f  65//9 66//9 61//9
f  61//9 66//9 54//9
f  54//9 66//9 52//9
f  52//9 66//9 47//9
f  61//9 54//9 56//9
f  56//9 58//9 61//9
f  61//9 58//9 60//9
f  52//9 47//9 50//9
f  50//9 47//9 48//9
f  66//12 63//12 47//12
f  47//12 63//12 45//12
f  67//20 68//20 69//20
f  69//20 68//20 70//20
f  69//19 70//19 71//19
f  69//19 71//19 72//19
f  72//18 71//18 73//18
f  72//18 73//18 74//18
f  74//17 73//17 75//17
f  74//17 75//17 76//17
f  76//16 75//16 77//16
f  76//16 77//16 78//16
f  78//15 77//15 79//15
f  78//15 79//15 80//15
f  80//14 79//14 81//14
f  80//14 81//14 82//14
f  82//13 81//13 83//13
f  82//13 83//13 84//13
f  85//11 86//11 68//11
f  68//11 86//11 75//11
f  75//11 86//11 77//11
f  77//11 86//11 83//11
f  68//11 75//11 73//11
f  73//11 71//11 68//11
f  68//11 71//11 70//11
f  77//11 83//11 79//11
f  79//11 83//11 81//11
f  87//10 85//10 67//10
f  67//10 85//10 68//10
f  88//9 87//9 84//9
f  84//9 87//9 76//9
f  76//9 87//9 74//9
f  74//9 87//9 67//9
f  84//9 76//9 78//9
f  78//9 80//9 84//9
f  84//9 80//9 82//9
f  74//9 67//9 72//9
f  72//9 67//9 69//9
f  86//12 88//12 83//12
f  83//12 88//12 84//12
f  41//21 89//21 42//21
f  44//21 90//21 41//21
f  41//21 90//21 91//21
f  41//21 91//21 92//21
f  92//21 93//21 41//21
f  41//21 93//21 94//21
f  41//21 94//21 89//21
f  42//21 89//21 95//21
f  42//21 95//21 96//21
f  96//21 97//21 42//21
f  42//21 97//21 98//21
f  97//21 99//21 98//21
f  42//21 98//21 43//21
f  43//21 98//21 100//21
f  43//21 87//21 44//21
f  43//21 100//21 87//21
f  101//21 85//21 100//21
f  101//21 100//21 102//21
f  87//21 100//21 85//21
f  44//21 87//21 88//21
f  44//21 88//21 90//21
f  90//21 88//21 103//21
f  103//21 88//21 86//21
f  90//21 104//21 91//21
f  103//21 86//21 105//21
f  105//21 86//21 106//21
f  106//21 86//21 107//21
f  107//21 86//21 108//21
f  108//21 86//21 109//21
f  109//21 86//21 85//21
f  105//21 110//21 103//21
f  109//21 85//21 111//21
f  111//21 85//21 112//21
f  112//21 85//21 101//21
f  113//12 114//12 103//12
f  103//12 114//12 90//12
f  90//22 114//22 104//22
f  104//22 114//22 115//22
f  104//23 115//23 116//23
f  104//23 116//23 91//23
f  91//24 116//24 117//24
f  91//24 117//24 92//24
f  92//25 117//25 118//25
f  92//25 118//25 93//25
f  93//26 118//26 119//26
f  93//26 119//26 94//26
f  94//27 119//27 120//27
f  94//27 120//27 89//27
f  89//28 120//28 121//28
f  89//28 121//28 95//28
f  95//29 121//29 122//29
f  95//29 122//29 96//29
f  96//30 122//30 123//30
f  96//30 123//30 97//30
f  97//31 123//31 124//31
f  97//31 124//31 99//32
f  99//33 124//33 125//33
f  99//33 125//33 98//34
f  125//10 126//10 98//10
f  98//10 126//10 100//10
f  100//35 126//35 102//35
f  102//35 126//35 127//35
f  102//36 127//36 128//36
f  102//36 128//36 101//36
f  101//37 128//37 129//37
f  101//37 129//37 112//37
f  112//38 129//38 130//38
f  112//38 130//38 111//38
f  111//39 130//39 131//39
f  111//39 131//39 109//39
f  109//40 131//40 132//40
f  109//40 132//40 108//40
f  108//41 132//41 133//41
f  108//41 133//41 107//41
f  107//42 133//42 134//42
f  107//42 134//42 106//42
f  106//43 134//43 135//43
f  106//43 135//43 105//43
f  105//44 135//44 136//44
f  105//44 136//44 110//45
f  110//46 136//46 113//46
f  110//46 113//46 103//47
f  19//48 120//48 20//48
f  21//48 125//48 19//48
f  19//48 125//48 123//48
f  19//48 123//48 122//48
f  122//48 121//48 19//48
f  19//48 121//48 120//48
f  20//48 120//48 119//48
f  20//48 119//48 118//48
f  118//48 117//48 20//48
f  20//48 117//48 116//48
f  20//48 116//48 114//48
f  114//48 116//48 115//48
f  20//48 114//48 22//48
f  22//48 114//48 113//48
f  22//48 66//48 21//48
f  22//48 113//48 66//48
f  135//48 63//48 113//48
f  135//48 113//48 136//48
f  66//48 113//48 63//48
f  21//48 66//48 65//48
f  21//48 65//48 125//48
f  125//48 65//48 126//48
f  126//48 65//48 64//48
f  125//48 124//48 123//48
f  126//48 64//48 128//48
f  128//48 64//48 129//48
f  129//48 64//48 130//48
f  130//48 64//48 131//48
f  131//48 64//48 63//48
f  128//48 127//48 126//48
f  131//48 63//48 132//48
f  132//48 63//48 133//48
f  133//48 63//48 134//48
f  134//48 63//48 135//48

