# File produced by Open Asset Import Library (http://www.assimp.sf.net)
# (assimp v3.1.76522261)

mtllib leg_X_0.obj.mtl

# 56 vertex positions
v  0.15 -0.005 -0.0497494
v  0.15 0.005 -0.0497494
v  0.169038 -0.005 -0.0459624
v  0.169038 0.005 -0.0459624
v  0.185178 -0.005 -0.0351781
v  0.185178 0.005 -0.0351781
v  0.195962 -0.005 -0.0190383
v  0.195962 0.005 -0.0190383
v  0.199749 -0.005 9.59657e-012
v  0.199749 0.005 9.59657e-012
v  0.195962 -0.005 0.0190383
v  0.195962 0.005 0.0190383
v  0.185178 -0.005 0.0351781
v  0.185178 0.005 0.0351781
v  0.169038 -0.005 0.0459624
v  0.169038 0.005 0.0459624
v  0.15 -0.005 0.0497494
v  0.15 0.005 0.0497494
v  0.15 0.00166915 0.0499721
v  0.15 -0.00166915 0.0499721
v  0.05 0.005 -0.0497494
v  0.05 0.005 0.0497494
v  0.05 -0.005 0.0497494
v  0.05 -0.005 -0.0497494
v  0.15 0.00166915 -0.0499721
v  0.15 -0.00166915 -0.0499721
v  0.05 0.0225473 0.0446276
v  0.05 0.0225473 -0.0446276
v  0.05 0.037081 0.033541
v  0.05 0.037081 -0.033541
v  0.05 0.0466586 0.0179715
v  0.05 0.0466586 -0.0179715
v  0.05 0.05 -3.06162e-018
v  0 -6.12323e-018 0.05
v  0 -0.0191342 0.046194
v  0 0.0191342 0.046194
v  0 0.0353553 0.0353553
v  0 0.046194 0.0191342
v  0 0.05 -3.06162e-018
v  0 0.046194 -0.0191342
v  0 0.0353553 -0.0353553
v  0 0.0191342 -0.046194
v  0 0 -0.05
v  0 -0.0191342 -0.046194
v  0.05 -0.0225473 -0.0446276
v  0 -0.0353553 -0.0353553
v  0.05 -0.037081 -0.033541
v  0 -0.046194 -0.0191342
v  0.05 -0.0466586 -0.0179715
v  0 -0.05 -3.06162e-018
v  0.05 -0.05 -3.06162e-018
v  0.05 -0.0466586 0.0179715
v  0 -0.046194 0.0191342
v  0.05 -0.037081 0.033541
v  0 -0.0353553 0.0353553
v  0.05 -0.0225473 0.0446276

# 0 UV coordinates

# 54 vertex normals
vn 0.19509 0 -0.980785
vn 0.55557 0 -0.83147
vn 0.83147 0 -0.55557
vn 0.980785 0 -0.19509
vn 0.980785 0 0.19509
vn 0.83147 0 0.55557
vn 0.55557 0 0.83147
vn 0.19509 0 0.980785
vn 1 0 0
vn 0 1 0
vn 0 -1 0
vn 0 -0.0667287 0.997771
vn -0.000417953 -0.0542314 0.998528
vn -0.0145912 -0.19507 0.980681
vn 0.000185789 2.07858e-015 1
vn -0.000417953 0.0542314 0.998528
vn -0.0145912 0.19507 0.980681
vn 0.0109459 0.280177 0.959886
vn -0.0118752 0.555531 0.831411
vn 0.00791818 0.606483 0.795057
vn -0.00853662 0.831439 0.55555
vn 0.00426876 0.851739 0.523949
vn -0.00457736 0.980775 0.195088
vn 0 0.983151 0.182795
vn 0 0.983151 -0.182795
vn 0 0.0667287 0.997771
vn -0.00457736 0.980775 -0.195088
vn 0.00426876 0.851739 -0.523949
vn -0.00853662 0.831439 -0.55555
vn 0.00791818 0.606483 -0.795057
vn -0.0118752 0.555531 -0.831411
vn 0.0109459 0.280177 -0.959886
vn -0.0145912 0.19507 -0.980681
vn -0.000417953 0.0542314 -0.998528
vn 0.000185789 0 -1
vn -6.92343e-017 0.0667287 -0.997771
vn -6.92343e-017 -0.0667287 -0.997771
vn -0.000417953 -0.0542314 -0.998528
vn -0.0145912 -0.19507 -0.980681
vn 0.0109459 -0.280177 -0.959886
vn -0.0118752 -0.555531 -0.831411
vn 0.00791818 -0.606483 -0.795057
vn -0.00853662 -0.831439 -0.55555
vn 0.00426876 -0.851739 -0.523949
vn -0.00457736 -0.980775 -0.195088
vn 0 -0.983151 -0.182795
vn 0 -0.983151 0.182795
vn -0.00457736 -0.980775 0.195088
vn 0.00426876 -0.851739 0.523949
vn -0.00853662 -0.831439 0.55555
vn 0.00791818 -0.606483 0.795057
vn -0.0118752 -0.555531 0.831411
vn 0.0109459 -0.280177 0.959886
vn -1 0 0

# Mesh '<dummy_root>' with 108 faces
g <dummy_root>
usemtl DefaultMaterial
f  1//1 2//1 3//1
f  3//1 2//1 4//1
f  3//2 4//2 5//2
f  5//2 4//2 6//2
f  5//3 6//3 7//3
f  7//3 6//3 8//3
f  7//4 8//4 9//4
f  9//4 8//4 10//4
f  9//5 10//5 11//5
f  11//5 10//5 12//5
f  11//6 12//6 13//6
f  13//6 12//6 14//6
f  13//7 14//7 15//7
f  15//7 14//7 16//7
f  15//8 16//8 17//8
f  17//8 16//8 18//8
f  18//9 19//9 17//9
f  17//9 19//9 20//9
f  21//10 22//10 2//10
f  2//10 22//10 18//10
f  2//10 18//10 10//10
f  10//10 8//10 2//10
f  2//10 8//10 6//10
f  2//10 6//10 4//10
f  10//10 18//10 12//10
f  12//10 18//10 14//10
f  14//10 18//10 16//10
f  23//11 24//11 17//11
f  17//11 24//11 1//11
f  17//11 1//11 9//11
f  9//11 11//11 17//11
f  17//11 11//11 13//11
f  17//11 13//11 15//11
f  9//11 1//11 7//11
f  7//11 1//11 5//11
f  5//11 1//11 3//11
f  2//9 1//9 25//9
f  25//9 1//9 26//9
f  22//9 21//9 27//9
f  27//9 21//9 28//9
f  27//9 28//9 29//9
f  29//9 28//9 30//9
f  29//9 30//9 31//9
f  31//9 30//9 32//9
f  31//9 32//9 33//9
f  17//12 20//12 23//12
f  23//13 20//13 34//13
f  23//14 34//14 35//14
f  20//15 19//15 34//15
f  34//16 19//16 22//16
f  34//17 22//17 36//17
f  36//18 22//18 27//18
f  36//19 27//19 37//19
f  37//20 27//20 29//20
f  37//21 29//21 38//21
f  38//22 29//22 31//22
f  38//23 31//23 39//23
f  39//24 31//24 33//24
f  39//25 33//25 32//25
f  19//26 18//26 22//26
f  39//27 32//27 40//27
f  40//28 32//28 30//28
f  40//29 30//29 41//29
f  41//30 30//30 28//30
f  41//31 28//31 42//31
f  42//32 28//32 21//32
f  42//33 21//33 43//33
f  43//34 21//34 25//34
f  43//35 25//35 26//35
f  21//36 2//36 25//36
f  1//37 24//37 26//37
f  26//38 24//38 43//38
f  43//39 24//39 44//39
f  44//40 24//40 45//40
f  44//41 45//41 46//41
f  46//42 45//42 47//42
f  46//43 47//43 48//43
f  48//44 47//44 49//44
f  48//45 49//45 50//45
f  50//46 49//46 51//46
f  50//47 51//47 52//47
f  50//48 52//48 53//48
f  53//49 52//49 54//49
f  53//50 54//50 55//50
f  55//51 54//51 56//51
f  55//52 56//52 35//52
f  35//53 56//53 23//53
f  24//9 23//9 45//9
f  45//9 23//9 56//9
f  45//9 56//9 47//9
f  47//9 56//9 54//9
f  47//9 54//9 49//9
f  49//9 54//9 52//9
f  49//9 52//9 51//9
f  36//54 42//54 34//54
f  42//54 36//54 41//54
f  41//54 36//54 37//54
f  34//54 42//54 43//54
f  34//54 43//54 35//54
f  35//54 43//54 44//54
f  35//54 44//54 55//54
f  55//54 44//54 46//54
f  55//54 46//54 53//54
f  53//54 46//54 48//54
f  53//54 48//54 50//54
f  41//54 37//54 40//54
f  40//54 37//54 38//54
f  40//54 38//54 39//54

