# File produced by Open Asset Import Library (http://www.assimp.sf.net)
# (assimp v3.1.76522261)

mtllib leg_X_1.obj.mtl

# 86 vertex positions
v  0.05 0.05 -0.44
v  0.05 0.005 -0.44
v  -0.05 0.05 -0.44
v  -0.05 0.005 -0.44
v  0.05 0.005 -0.5
v  -0.05 0.005 -0.5
v  -0.046194 0.005 -0.519134
v  0.046194 0.005 -0.519134
v  0.0353553 0.005 -0.535355
v  0.0191342 0.005 -0.546194
v  3.06162e-018 0.005 -0.55
v  -0.0191342 0.005 -0.546194
v  -0.0353553 0.005 -0.535355
v  0.05 -0.005 -0.44
v  -0.05 -0.005 -0.44
v  0.05 -0.005 -0.5
v  -0.05 -0.005 -0.5
v  -0.046194 -0.005 -0.519134
v  0.046194 -0.005 -0.519134
v  -0.0353553 -0.005 -0.535355
v  -0.0191342 -0.005 -0.546194
v  3.06162e-018 -0.005 -0.55
v  0.0191342 -0.005 -0.546194
v  0.0353553 -0.005 -0.535355
v  0.05 -0.05 -0.44
v  -0.05 -0.05 -0.44
v  -3.06162e-018 0.05 0.05
v  -0.05 0.05 0
v  -0.0353553 0.05 0.0353553
v  -0.0191342 0.05 0.046194
v  0.0191342 0.05 0.046194
v  0.0353553 0.05 0.0353553
v  0.05 0.05 0
v  0.046194 0.05 0.0191342
v  -0.046194 0.05 0.0191342
v  0.05 0.005 -0.06
v  0.05 -0.005 -0.06
v  0.05 0.005 6.12323e-018
v  0.05 -0.05 0
v  0.05 -0.005 6.12323e-018
v  -0.046194 0.005 0.0191342
v  -0.05 0.005 0
v  0.046194 0.005 0.0191342
v  0.0353553 0.005 0.0353553
v  0.0191342 0.005 0.046194
v  -3.06162e-018 0.005 0.05
v  -0.0191342 0.005 0.046194
v  -0.0353553 0.005 0.0353553
v  -0.05 0.005 -0.06
v  -0.05 -0.005 -0.06
v  -0.05 -0.005 0
v  -0.046194 -0.005 0.0191342
v  0.046194 -0.005 0.0191342
v  -0.0353553 -0.005 0.0353553
v  -0.0191342 -0.005 0.046194
v  -3.06162e-018 -0.005 0.05
v  0.0191342 -0.005 0.046194
v  0.0353553 -0.005 0.0353553
v  0.046194 -0.05 0.0191342
v  0.0353553 -0.05 0.0353553
v  0.0191342 -0.05 0.046194
v  -3.06162e-018 -0.05 0.05
v  -0.0191342 -0.05 0.046194
v  -0.0353553 -0.05 0.0353553
v  -0.046194 -0.05 0.0191342
v  -0.05 -0.05 0
v  -0.0161803 -0.055 0.0117557
v  -0.0161803 -0.05 0.0117557
v  -0.02 -0.055 -2.44929e-018
v  -0.02 -0.05 -2.44929e-018
v  -0.0161803 -0.055 -0.0117557
v  -0.0161803 -0.05 -0.0117557
v  -0.00618034 -0.055 -0.0190211
v  -0.00618034 -0.05 -0.0190211
v  0.00618034 -0.055 -0.0190211
v  0.00618034 -0.05 -0.0190211
v  0.0161803 -0.055 -0.0117557
v  0.0161803 -0.05 -0.0117557
v  0.02 -0.055 0
v  0.02 -0.05 0
v  0.0161803 -0.055 0.0117557
v  0.0161803 -0.05 0.0117557
v  0.00618034 -0.055 0.0190211
v  0.00618034 -0.05 0.0190211
v  -0.00618034 -0.055 0.0190211
v  -0.00618034 -0.05 0.0190211

# 0 UV coordinates

# 34 vertex normals
vn -0 -0 -1
vn 0 1 1.01192e-016
vn 0 1 0
vn -0 -1 -1.01192e-016
vn 0 -1 0
vn 1 0 0
vn 0 0 1
vn 0.980785 -2.65463e-017 0.19509
vn 0.980785 0 0.19509
vn 0.83147 0 0.55557
vn 0.55557 0 0.83147
vn 0.19509 0 0.980785
vn -0.19509 0 0.980785
vn -0.55557 0 0.83147
vn -0.83147 0 0.55557
vn -0.980785 0 0.19509
vn 0.980785 2.65463e-017 0.19509
vn -0.951057 0 0.309017
vn -0.951057 0 -0.309017
vn -0.587785 0 -0.809017
vn 0.587785 0 -0.809017
vn 0.951057 0 -0.309017
vn 0.951057 0 0.309017
vn 0.587785 0 0.809017
vn -0.587785 0 0.809017
vn -1 0 0
vn -0.980785 0 -0.19509
vn -0.83147 0 -0.55557
vn -0.55557 0 -0.83147
vn -0.19509 0 -0.980785
vn 0.19509 0 -0.980785
vn 0.55557 0 -0.83147
vn 0.83147 0 -0.55557
vn 0.980785 0 -0.19509

# Mesh '<dummy_root>' with 168 faces
g <dummy_root>
usemtl DefaultMaterial
f  1//1 2//1 3//1
f  3//1 2//1 4//1
f  2//2 5//2 4//2
f  4//2 5//2 6//2
f  6//2 5//2 7//3
f  7//3 5//2 8//3
f  7//3 8//3 9//3
f  9//3 10//3 7//3
f  7//3 10//3 11//3
f  7//3 11//3 12//3
f  12//3 13//3 7//3
f  14//4 15//4 16//4
f  16//4 15//4 17//4
f  16//4 17//4 18//5
f  18//5 19//5 16//4
f  20//5 21//5 18//5
f  18//5 21//5 22//5
f  18//5 22//5 23//5
f  23//5 24//5 18//5
f  18//5 24//5 19//5
f  14//1 25//1 15//1
f  15//1 25//1 26//1
f  3//3 27//3 1//3
f  28//3 29//3 3//3
f  3//3 29//3 30//3
f  3//3 30//3 27//3
f  1//3 27//3 31//3
f  1//3 31//3 32//3
f  32//3 33//3 1//3
f  34//3 33//3 32//3
f  28//3 35//3 29//3
f  5//6 2//6 16//6
f  16//6 2//6 14//6
f  14//6 2//6 36//6
f  2//6 1//6 36//6
f  14//6 36//6 37//6
f  37//6 25//6 14//6
f  36//6 1//6 33//6
f  36//6 33//6 38//6
f  37//6 39//6 25//6
f  40//6 39//6 37//6
f  41//5 42//5 38//5
f  38//5 43//5 41//5
f  41//5 43//5 44//5
f  41//5 44//5 45//5
f  45//5 46//5 41//5
f  41//5 46//5 47//5
f  41//5 47//5 48//5
f  38//5 42//5 49//5
f  38//5 49//5 36//5
f  37//3 50//3 40//3
f  40//3 50//3 51//3
f  40//3 51//3 52//3
f  52//3 53//3 40//3
f  54//3 55//3 52//3
f  52//3 55//3 56//3
f  52//3 56//3 57//3
f  57//3 58//3 52//3
f  52//3 58//3 53//3
f  50//7 37//7 49//7
f  49//7 37//7 36//7
f  39//8 40//8 59//8
f  59//8 40//8 53//9
f  59//10 53//10 60//10
f  60//10 53//10 58//10
f  60//11 58//11 61//11
f  61//11 58//11 57//11
f  61//12 57//12 62//12
f  62//12 57//12 56//12
f  62//13 56//13 63//13
f  63//13 56//13 55//13
f  63//14 55//14 64//14
f  64//14 55//14 54//14
f  64//15 54//15 65//15
f  65//15 54//15 52//15
f  65//16 52//16 66//16
f  66//16 52//16 51//16
f  28//16 42//16 35//16
f  35//16 42//16 41//16
f  35//15 41//15 29//15
f  29//15 41//15 48//15
f  29//14 48//14 30//14
f  30//14 48//14 47//14
f  30//13 47//13 27//13
f  27//13 47//13 46//13
f  27//12 46//12 31//12
f  31//12 46//12 45//12
f  31//11 45//11 32//11
f  32//11 45//11 44//11
f  32//10 44//10 34//10
f  34//10 44//10 43//10
f  34//9 43//9 33//9
f  33//9 43//9 38//17
f  67//18 68//18 69//18
f  69//18 68//18 70//18
f  69//19 70//19 71//19
f  71//19 70//19 72//19
f  71//20 72//20 73//20
f  73//20 72//20 74//20
f  73//1 74//1 75//1
f  75//1 74//1 76//1
f  75//21 76//21 77//21
f  77//21 76//21 78//21
f  77//22 78//22 79//22
f  79//22 78//22 80//22
f  79//23 80//23 81//23
f  81//23 80//23 82//23
f  81//24 82//24 83//24
f  83//24 82//24 84//24
f  83//7 84//7 85//7
f  85//7 84//7 86//7
f  85//25 86//25 67//25
f  67//25 86//25 68//25
f  71//5 77//5 69//5
f  73//5 75//5 71//5
f  71//5 75//5 77//5
f  69//5 77//5 79//5
f  69//5 79//5 67//5
f  67//5 79//5 81//5
f  67//5 81//5 85//5
f  85//5 81//5 83//5
f  25//5 74//5 26//5
f  39//5 78//5 25//5
f  25//5 78//5 76//5
f  25//5 76//5 74//5
f  26//5 74//5 72//5
f  26//5 72//5 66//5
f  66//5 72//5 70//5
f  66//5 70//5 65//5
f  65//5 70//5 64//5
f  64//5 70//5 63//5
f  63//5 70//5 68//5
f  63//5 68//5 86//5
f  86//5 62//5 63//5
f  84//5 62//5 86//5
f  84//5 61//5 62//5
f  82//5 61//5 84//5
f  60//5 61//5 80//5
f  80//5 61//5 82//5
f  80//5 59//5 60//5
f  78//5 39//5 80//5
f  80//5 39//5 59//5
f  6//26 15//26 4//26
f  6//26 17//26 15//26
f  4//26 15//26 50//26
f  15//26 26//26 50//26
f  4//26 50//26 49//26
f  49//26 3//26 4//26
f  50//26 26//26 66//26
f  50//26 66//26 51//26
f  49//26 28//26 3//26
f  42//26 28//26 49//26
f  17//27 6//27 18//27
f  18//27 6//27 7//27
f  18//28 7//28 20//28
f  20//28 7//28 13//28
f  20//29 13//29 21//29
f  21//29 13//29 12//29
f  21//30 12//30 22//30
f  22//30 12//30 11//30
f  22//31 11//31 23//31
f  23//31 11//31 10//31
f  23//32 10//32 24//32
f  24//32 10//32 9//32
f  24//33 9//33 19//33
f  19//33 9//33 8//33
f  19//34 8//34 16//34
f  16//34 8//34 5//34

